<svg xmlns="http://www.w3.org/2000/svg" width="64" height="64" viewBox="0 0 150 80" >
<defs><style>.cls-1{fill:#2e3192;}.cls-2,.cls-9{fill:none;stroke-linecap:round;stroke-linejoin:round;}.cls-2,.cls-3,.cls-9{stroke:#fff;}.cls-2{stroke-width:4px;}.cls-3{font-size:12px;stroke-miterlimit:10;font-family:ArialRoundedMTBold, Arial Rounded MT Bold;letter-spacing:0.01em;}.cls-3,.cls-8{fill:#fff;}.cls-4{letter-spacing:-0.01em;}.cls-5{letter-spacing:-0.02em;}.cls-6{letter-spacing:-0.02em;}.cls-7{stroke-miterlimit:4;}.cls-9{stroke-width:2px;}</style></defs>
<rect class="cls-1" width="117.45" height="75.84" rx="12.43"/>
<path class="cls-2" d="M377.91,294.71a16.44,16.44,0,0,0-9.57-2.27c-6.53.45-13.08,4.62-13.59,10.54-.48,5.44,4.33,10.17,10.51,11.6a21.59,21.59,0,0,0,12.8-1.37" transform="translate(-331.79 -269.59)"/>
<path class="cls-2" d="M354.75,303.74l67.36-.57" transform="translate(-331.79 -269.59)"/>
<path class="cls-2" d="M400.22,303.33,400,315" transform="translate(-331.79 -269.59)"/>
<path class="cls-2" d="M416.54,303.43l-.22,11.7" transform="translate(-331.79 -269.59)"/>
<path class="cls-2" d="M400.87,309.57l15.25.18" transform="translate(-331.79 -269.59)"/>
<text class="cls-3" transform="translate(15.16 57.42)">Chu<tspan class="cls-4" x="23.56" y="0">r</tspan>
<tspan class="cls-5" x="28.72" y="0">r</tspan><tspan class="cls-6" x="33.73" y="0">e</tspan>
<tspan x="40.61" y="0">y</tspan><tspan class="cls-7" x="47.18" y="0" xml:space="preserve"> Homes</tspan>
</text><path class="cls-8" d="M342.82,334.72a223.85,223.85,0,0,1,24.61-2.88c4.1-.35,8.2-.45,12.3-.68s8.21-.2,12.32-.29,8.21,0,12.31.08,8.21.18,12.32.45a228.47,228.47,0,0,1,24.65,2.42v.4l-49.26.65-49.26.25Z" transform="translate(-331.79 -269.59)"/>
<polygon class="cls-9" points="98.87 12.73 92.77 18.23 104.96 18.23 98.87 12.73"/>
<line class="cls-9" x1="96.6" y1="16.46" x2="96.6" y2="23.52"/>
<line class="cls-9" x1="101.26" y1="16.46" x2="101.26" y2="25.25"/>
<path class="cls-8" d="M341.67,298.67c3.54-2.33,7.18-4.43,10.83-6.51s7.34-4.07,11.08-6c1.86-.95,3.71-1.94,5.59-2.85l5.64-2.74c3.75-1.87,7.59-3.52,11.38-5.28l1.29-.6,1.46.54c2.21.82,4.4,1.71,6.58,2.61l6.56,2.68c2.19.9,4.34,1.88,6.51,2.81s4.34,1.87,6.47,2.89l6.44,3,6.37,3.14c4.22,2.18,8.44,4.35,12.54,6.82l-.15.37-26.39-10.3-13.2-5.16c-4.39-1.72-8.8-3.41-13.18-5.17h.3l-46,20.1Z" transform="translate(-331.79 -269.59)"/></svg>